<?xml version="1.0" encoding="utf-8"?>
<!DOCTYPE svg PUBLIC "-//W3C//DTD SVG 1.0//EN" "http://www.w3.org/TR/2001/REC-SVG-20010904/DTD/svg10.dtd">
<svg version="1.0" xmlns="http://www.w3.org/2000/svg" width="238px" height="284px" viewBox="0 0 238 284" preserveAspectRatio="xMidYMid meet">
 <g fill="#ffffff">
  <path d="M0 142 l0 -142 119 0 119 0 0 142 0 142 -119 0 -119 0 0 -142z m177.8 112.8 l0.3 -11.8 -67.6 0 -67.5 0 0 -99.5 0 -99.5 91.1 0 91.2 0 -0.7 -4.6 c-0.3 -2.6 -0.6 -8 -0.6 -12 l0 -7.4 -103 0 -103 0 0 122.9 0 123 2.3 0.4 c1.2 0.2 37.1 0.4 79.7 0.3 l77.5 -0.1 0.3 -11.7z m46.2 -63.8 l0 -75 -54.5 0 -54.5 0 0 32 0 32 31.5 0 31.5 0 0 -8.5 0 -8.5 -21 0 -21 0 0 -12.5 0 -12.5 33 0 33 0 0 64 0 64 11 0 11 0 0 -75z m-46 21.5 l0 -9.5 -44 0 -44 0 0 -55.5 0 -55.5 66.9 0 c39.7 0 67.2 -0.4 67.6 -0.9 0.3 -0.5 0.2 -6.1 -0.1 -12.5 l-0.7 -11.6 -78.9 0 -78.8 0 0 77.5 0 77.5 56 0 56 0 0 -9.5z"/>
 </g>
 <g fill="#e52539">
  <path d="M199 205.3 l0 -64.3 -30 0 -30 0 0 9.5 0 9.6 21 -0.3 21 -0.3 0 11.8 0 11.7 -34.8 0 -34.8 0 0.3 -10.2 c0.2 -5.7 0.3 -21.4 0.3 -35.1 l0 -24.7 57.5 0.2 57.5 0.3 0 77.9 0 77.8 -14 0.2 -14 0.1 0 -64.2z"/>
  <path d="M63 144.5 l0 -80.5 82.3 0 82.2 0 0 15.3 0 15.2 -67.2 0.3 -67.3 0.2 0 52.5 0 52.5 44 0 44 0 0 12.5 0 12.5 -59 0 -59 0 0 -80.5z"/>
 </g>
 <g fill="#16407f">
  <path d="M17.3 269.3 l-2.3 -0.4 0 -126 0 -125.9 106.2 0.2 106.2 0.3 0.3 14.8 0.2 14.7 -90.9 0 -91 0 0 96.5 0 96.5 67.5 0 67.6 0 -0.3 14.8 -0.3 14.7 -80.5 0.1 c-44.3 0.1 -81.5 -0.1 -82.7 -0.3z"/>
 </g>
</svg>