<svg xmlns="http://www.w3.org/2000/svg" id="Layer_1" data-name="Layer 1" viewBox="0 0 24 24" width="300" height="300" version="1.1" xmlns:xlink="http://www.w3.org/1999/xlink" xmlns:svgjs="http://svgjs.dev/svgjs"><g width="100%" height="100%" transform="matrix(1,0,0,1,0,0)"><path d="M0,3.5c0-.83,.67-1.5,1.5-1.5H17.5c.83,0,1.5,.67,1.5,1.5s-.67,1.5-1.5,1.5H1.5c-.83,0-1.5-.67-1.5-1.5Zm17.5,14.5H1.5c-.83,0-1.5,.67-1.5,1.5s.67,1.5,1.5,1.5H17.5c.83,0,1.5-.67,1.5-1.5s-.67-1.5-1.5-1.5Zm5-8H6.5c-.83,0-1.5,.67-1.5,1.5s.67,1.5,1.5,1.5H22.5c.83,0,1.5-.67,1.5-1.5s-.67-1.5-1.5-1.5Z" fill="#1c427a" fill-opacity="1" data-original-color="#000000ff" stroke="none" stroke-opacity="1"/></g></svg>